<svg width="26" height="26" viewBox="0 0 26 26" fill="none" xmlns="http://www.w3.org/2000/svg">
<path d="M22.8229 0.314575L4.07288 0.314575C2.34944 0.314575 0.947876 1.71614 0.947876 3.43957V22.1896C0.947876 23.913 2.34944 25.3146 4.07288 25.3146H22.8229C24.5463 25.3146 25.9479 23.913 25.9479 22.1896V3.43957C25.9479 1.71614 24.5463 0.314575 22.8229 0.314575Z" fill="#1976D2"/>
<path d="M22.0416 12.8146H18.1354V9.68957C18.1354 8.82707 18.8354 8.90832 19.6979 8.90832H21.2604V5.00208H18.1354C15.5463 5.00208 13.4479 7.10051 13.4479 9.68957V12.8146H10.3229V16.7208H13.4479V25.3146H18.1354V16.7208H20.4791L22.0416 12.8146Z" fill="#FAFAFA"/>
</svg>
