<svg width="26" height="26" viewBox="0 0 26 26" fill="none" xmlns="http://www.w3.org/2000/svg">
<path d="M18.1354 0.314575L8.76041 0.314575C4.44634 0.314575 0.947906 3.81301 0.947906 8.12707V17.5021C0.947906 21.8161 4.44634 25.3146 8.76041 25.3146H18.1354C22.4495 25.3146 25.9479 21.8161 25.9479 17.5021V8.12707C25.9479 3.81301 22.4495 0.314575 18.1354 0.314575ZM23.6042 17.5021C23.6042 20.5177 21.151 22.9708 18.1354 22.9708H8.76041C5.74478 22.9708 3.29166 20.5177 3.29166 17.5021V8.12707C3.29166 5.11145 5.74478 2.65832 8.76041 2.65832H18.1354C21.151 2.65832 23.6042 5.11145 23.6042 8.12707V17.5021Z" fill="url(#paint0_linear)"/>
<path d="M13.4479 6.56458C9.99634 6.56458 7.19791 9.36301 7.19791 12.8146C7.19791 16.2661 9.99634 19.0646 13.4479 19.0646C16.8995 19.0646 19.6979 16.2661 19.6979 12.8146C19.6979 9.36301 16.8995 6.56458 13.4479 6.56458ZM13.4479 16.7208C11.2948 16.7208 9.54166 14.9677 9.54166 12.8146C9.54166 10.6599 11.2948 8.90832 13.4479 8.90832C15.601 8.90832 17.3542 10.6599 17.3542 12.8146C17.3542 14.9677 15.601 16.7208 13.4479 16.7208Z" fill="url(#paint1_linear)"/>
<path d="M20.1667 6.92868C20.6267 6.92868 20.9995 6.55582 20.9995 6.09587C20.9995 5.63592 20.6267 5.26306 20.1667 5.26306C19.7068 5.26306 19.3339 5.63592 19.3339 6.09587C19.3339 6.55582 19.7068 6.92868 20.1667 6.92868Z" fill="url(#paint2_linear)"/>
<defs>
<linearGradient id="paint0_linear" x1="3.23642" y1="23.0262" x2="23.6594" y2="2.60293" gradientUnits="userSpaceOnUse">
<stop stop-color="#FFC107"/>
<stop offset="0.507" stop-color="#F44336"/>
<stop offset="0.99" stop-color="#9C27B0"/>
</linearGradient>
<linearGradient id="paint1_linear" x1="9.02861" y1="17.2339" x2="17.8672" y2="8.39528" gradientUnits="userSpaceOnUse">
<stop stop-color="#FFC107"/>
<stop offset="0.507" stop-color="#F44336"/>
<stop offset="0.99" stop-color="#9C27B0"/>
</linearGradient>
<linearGradient id="paint2_linear" x1="19.5779" y1="6.68485" x2="20.7555" y2="5.50704" gradientUnits="userSpaceOnUse">
<stop stop-color="#FFC107"/>
<stop offset="0.507" stop-color="#F44336"/>
<stop offset="0.99" stop-color="#9C27B0"/>
</linearGradient>
</defs>
</svg>
