<svg width="15" height="15" viewBox="0 0 15 15" fill="none" xmlns="http://www.w3.org/2000/svg">
<path d="M14.6518 6.24203C14.5556 5.94458 14.2918 5.73331 13.9796 5.70518L9.73978 5.3202L8.06322 1.39605C7.9396 1.10846 7.65806 0.922302 7.34526 0.922302C7.03245 0.922302 6.75091 1.10846 6.62729 1.39672L4.95074 5.3202L0.710198 5.70518C0.398624 5.73398 0.135468 5.94458 0.0387457 6.24203C-0.0579766 6.53948 0.0313486 6.86574 0.267046 7.0714L3.47188 9.88206L2.52685 14.0449C2.4577 14.351 2.5765 14.6674 2.83047 14.851C2.96698 14.9496 3.12669 14.9998 3.28774 14.9998C3.4266 14.9998 3.56435 14.9624 3.68797 14.8884L7.34526 12.7026L11.0012 14.8884C11.2687 15.0494 11.606 15.0347 11.8594 14.851C12.1135 14.6668 12.2321 14.3503 12.163 14.0449L11.218 9.88206L14.4228 7.07196C14.6585 6.86574 14.7485 6.54004 14.6518 6.24203V6.24203Z" fill="#FFC107"/>
</svg>
