<svg width="16" height="16" viewBox="0 0 16 16" fill="none" xmlns="http://www.w3.org/2000/svg">
<path d="M14.9892 14.0204L10.4242 9.45532C11.1326 8.5395 11.5158 7.41977 11.5158 6.24204C11.5158 4.83227 10.9656 3.5104 9.97069 2.51372C8.97577 1.51704 7.65038 0.968601 6.24237 0.968601C4.83436 0.968601 3.50897 1.5188 2.51405 2.51372C1.51737 3.50864 0.968933 4.83227 0.968933 6.24204C0.968933 7.65005 1.51913 8.97544 2.51405 9.97036C3.50897 10.967 4.8326 11.5155 6.24237 11.5155C7.4201 11.5155 8.53807 11.1323 9.45389 10.4256L14.0189 14.9889C14.0323 15.0023 14.0482 15.0129 14.0657 15.0202C14.0832 15.0274 14.1019 15.0312 14.1209 15.0312C14.1398 15.0312 14.1586 15.0274 14.1761 15.0202C14.1936 15.0129 14.2095 15.0023 14.2228 14.9889L14.9892 14.2243C15.0026 14.2109 15.0133 14.195 15.0205 14.1775C15.0278 14.16 15.0315 14.1412 15.0315 14.1223C15.0315 14.1034 15.0278 14.0846 15.0205 14.0671C15.0133 14.0496 15.0026 14.0337 14.9892 14.0204V14.0204ZM9.02675 9.02641C8.28143 9.76997 7.29354 10.1795 6.24237 10.1795C5.1912 10.1795 4.20331 9.76997 3.458 9.02641C2.71444 8.2811 2.30487 7.29321 2.30487 6.24204C2.30487 5.19087 2.71444 4.20122 3.458 3.45766C4.20331 2.71411 5.1912 2.30454 6.24237 2.30454C7.29354 2.30454 8.28319 2.71235 9.02675 3.45766C9.7703 4.20298 10.1799 5.19087 10.1799 6.24204C10.1799 7.29321 9.7703 8.28286 9.02675 9.02641Z" fill="#8C8C8C"/>
</svg>
