<svg width="36" height="21" viewBox="0 0 36 21" fill="none" xmlns="http://www.w3.org/2000/svg">
<path d="M18.099 20.7303H20.1935C20.1935 20.7303 20.8267 20.6602 21.1487 20.3118C21.4467 19.992 21.4358 19.3917 21.4358 19.3917C21.4358 19.3917 21.3941 16.5807 22.6999 16.1666C23.986 15.7591 25.638 18.8834 27.3885 20.0862C28.7118 20.9954 29.7175 20.796 29.7175 20.796L34.3995 20.7303C34.3995 20.7303 36.8489 20.5791 35.6877 18.6533C35.5935 18.4956 35.0108 17.2292 32.2064 14.6264C29.2705 11.9009 29.6649 12.3434 33.201 7.63075C35.3547 4.76063 36.2158 3.00788 35.9463 2.25858C35.6899 1.54434 34.1059 1.73276 34.1059 1.73276L28.8389 1.76343C28.8389 1.76343 28.4489 1.71085 28.1575 1.88393C27.8749 2.05483 27.693 2.44919 27.693 2.44919C27.693 2.44919 26.8583 4.6708 25.7453 6.55938C23.3988 10.5447 22.4589 10.755 22.0755 10.5074C21.1838 9.93122 21.4073 8.18943 21.4073 6.95375C21.4073 3.09114 21.9922 1.4808 20.2658 1.06453C19.6918 0.926498 19.2711 0.834479 17.8054 0.819143C15.9256 0.799424 14.3328 0.825715 13.4323 1.26609C12.832 1.55968 12.3697 2.21477 12.6523 2.25201C13.0007 2.29802 13.7894 2.46453 14.2079 3.03417C14.749 3.76813 14.7293 5.4201 14.7293 5.4201C14.7293 5.4201 15.0404 9.96628 14.0041 10.5315C13.2921 10.9193 12.3171 10.1284 10.2248 6.51118C9.1534 4.65984 8.34275 2.61132 8.34275 2.61132C8.34275 2.61132 8.1872 2.2301 7.90895 2.02635C7.57155 1.77877 7.09831 1.6999 7.09831 1.6999L2.08984 1.73057C2.08984 1.73057 1.33835 1.75248 1.06229 2.07893C0.816909 2.37032 1.04258 2.97064 1.04258 2.97064C1.04258 2.97064 4.96434 12.1441 9.40316 16.7691C13.4761 21.0086 18.099 20.7303 18.099 20.7303Z" fill="#1E88E5"/>
</svg>
